<?xml version="1.0" encoding="utf-8"?>
<!-- Generator: Adobe Illustrator 19.0.0, SVG Export Plug-In . SVG Version: 6.00 Build 0)  -->
<svg version="1.1" id="Calque_1" xmlns:sketch="http://www.bohemiancoding.com/sketch/ns"
	 xmlns="http://www.w3.org/2000/svg" xmlns:xlink="http://www.w3.org/1999/xlink" x="0px" y="0px" width="100px" height="100px"
	 viewBox="0 0 100 100" style="enable-background:new 0 0 100 100;" xml:space="preserve">
<path id="delete" sketch:type="MSShapeGroup" class="st0" d="M96.2,96.6c-3.7,3.7-9,4.6-11.7,1.8L50.7,64.9L15.8,98.3
	c-2.7,2.7-7.9,1.9-11.5-1.8l-0.4-0.4c-3.7-3.7-4.5-8.9-1.8-11.6L37,51.1L1.6,15.6c-2.7-2.7-1.9-8,1.8-11.7l0.4-0.4
	c3.7-3.7,9-4.6,11.7-1.8l35.3,35.5L84.6,1.7c2.7-2.7,7.9-1.9,11.5,1.8l0.4,0.4c3.7,3.7,4.5,8.9,1.8,11.6L64.6,50.9l33.8,33.5
	c2.7,2.7,1.9,8-1.8,11.7L96.2,96.6z"/>
</svg>
