<?xml version="1.0" encoding="UTF-8" standalone="no"?>
<svg width="100px" height="100px" viewBox="0 0 100 100" version="1.1" xmlns="http://www.w3.org/2000/svg" xmlns:xlink="http://www.w3.org/1999/xlink" xmlns:sketch="http://www.bohemiancoding.com/sketch/ns">
    <!-- Generator: Sketch 3.2 (9961) - http://www.bohemiancoding.com/sketch -->
    <title>onboard_popin_gift</title>
    <desc>Created with Sketch.</desc>
    <defs></defs>
    <g id="Page-1" stroke="none" stroke-width="1" fill="none" fill-rule="evenodd" sketch:type="MSPage">
        <g id="onboard_popin_gift" sketch:type="MSArtboardGroup" fill="#000000">
            <path d="M89.7692308,100 L89.7692308,64.3646479 L53.6153846,64.3646479 L53.6153846,100 L89.7692308,100 Z M10.2307692,100 L46.3846154,100 L46.3846154,64.3646479 L10.2307692,64.3646479 L10.2307692,100 L10.2307692,100 Z M53.5871394,34.9864181 C57.1425312,34.5966565 61.1427284,34.1616824 63.4588341,33.9041057 C72.9350962,32.8635534 81.4651442,24.4523853 82.5172212,15.1154776 C83.5692981,5.78903779 76.7552019,-0.934350912 67.3000673,0.11310572 C59.9070577,0.927484877 53.1458365,6.23447969 50,12.9578684 C46.8541635,6.23447969 40.0929423,0.927484877 32.7033221,0.106201371 C23.2447981,-0.934350912 16.4199687,5.78903779 17.4827788,15.1154776 C18.5384712,24.4523853 27.0720216,32.8565377 36.5376635,33.9041057 C38.8572716,34.1615711 42.8575817,34.6035608 46.4128606,34.9864181 C46.3563702,35.4561366 46.3846154,35.8563662 46.3846154,35.8563662 L53.6153846,35.8563662 C53.6153846,35.8563662 53.6436298,35.4561366 53.5871394,34.9864181 L53.5871394,34.9864181 Z M65.7466947,8.76102616 C70.8590745,8.19731943 74.5591947,11.8303436 73.9801683,16.8764208 C73.4152644,21.9223867 68.7971755,26.4707939 63.6847957,27.034612 C58.5582933,27.5948666 54.8722957,23.9617311 55.4442043,18.9157652 C56.016113,13.8697993 60.6343149,9.32128071 65.7466947,8.76102616 L65.7466947,8.76102616 Z M36.3187067,27.0345007 C31.2063269,26.4707939 26.5953558,21.9223867 26.0233341,16.8763094 C25.4513125,11.8302322 29.1409255,8.19709671 34.2496899,8.7609148 C39.3690745,9.32116935 43.9836611,13.8695766 44.5560216,18.9156538 C45.1277043,23.9617311 41.4382043,27.5947552 36.3187067,27.0345007 L36.3187067,27.0345007 Z M53.6153846,35.8563662 L53.6153846,57.2375774 L97,57.2375774 L97,35.8563662 L53.6153846,35.8563662 L53.6153846,35.8563662 Z M3,57.2375774 L46.3846154,57.2375774 L46.3846154,35.8563662 L3,35.8563662 L3,57.2375774 L3,57.2375774 Z" sketch:type="MSShapeGroup"></path>
        </g>
    </g>
</svg>